PathFileType	4	(X/Y/Z)	C:/Users/cmwille/Documents/OptiTrack/OpenSim_Lab5_04202021/group4_jump_1.trc
DataRate	CameraRate	NumFrames	NumMarkers	Units	OrigDataRate	OrigDataStartFrame	OrigNumFrames
200	200	7	39	m	200	869	994
Frame#	Time	L.ASIS			L.Acromium			L.Ankle.Lat			L.Ankle.Med			L.Heel			L.Knee.Lat			L.Knee.Med			L.Midfoot.Lat			L.Midfoot.Sup			L.Shank.Front			L.Shank.Rear			L.Shank.Upper			L.Thigh.Front			L.Thigh.Rear			L.Thigh.Upper			L.Toe.Lat			L.Toe.Med			L.Toe.Tip			R.ASIS			R.Acromium			R.Ankle.Lat			R.Ankle.Med			R.Heel			R.Knee.Lat			R.Knee.Med			R.Midfoot.Lat			R.Midfoot.Sup			R.Shank.Front			R.Shank.Rear			R.Shank.Upper			R.Thigh.Front			R.Thigh.Rear			R.Thigh.Upper			R.Toe.Lat			R.Toe.Med			R.Toe.Tip			Sternum			Top.Head			V.Sacral			
		X1	Y1	Z1	X2	Y2	Z2	X3	Y3	Z3	X4	Y4	Z4	X5	Y5	Z5	X6	Y6	Z6	X7	Y7	Z7	X8	Y8	Z8	X9	Y9	Z9	X10	Y10	Z10	X11	Y11	Z11	X12	Y12	Z12	X13	Y13	Z13	X14	Y14	Z14	X15	Y15	Z15	X16	Y16	Z16	X17	Y17	Z17	X18	Y18	Z18	X19	Y19	Z19	X20	Y20	Z20	X21	Y21	Z21	X22	Y22	Z22	X23	Y23	Z23	X24	Y24	Z24	X25	Y25	Z25	X26	Y26	Z26	X27	Y27	Z27	X28	Y28	Z28	X29	Y29	Z29	X30	Y30	Z30	X31	Y31	Z31	X32	Y32	Z32	X33	Y33	Z33	X34	Y34	Z34	X35	Y35	Z35	X36	Y36	Z36	X37	Y37	Z37	X38	Y38	Z38	X39	Y39	Z39
869	4.345	0.1977	1.0326	0.445563	0.118107	1.53481	0.386548	0.118109	0.115886	0.3298	0.140351	0.121134	0.441912	0.0407269	0.065085	0.386825	0.204612	0.529227	0.362771	0.22537	0.5038	0.489281	0.166329	0.0426456	0.305385	0.198424	0.0413171	0.433558	0.242557	0.44001	0.40434	0.205019	0.360935	0.356146	0.181811	0.475312	0.351614	0.171815	0.730001	0.350103	0.0812035	0.603145	0.420283	0.0574343	0.677937	0.42814	0.274201	0.0601415	0.305646	0.277063	0.0505987	0.432893	0.719507	0.0153801	0.812654	0.17659	1.05659	0.761152	0.13982	1.51075	0.789675	0.148616	0.125445	0.865965	0.170184	0.127233	0.754297	0.064909	0.0652822	0.809491	0.233688	0.527595	0.820248	0.241539	0.526246	0.695347	0.190722	0.0402894	0.890414	0.220998	0.0435316	0.7603	0.260778	0.460824	0.77129	0.248022	0.370343	0.810967	0.217129	0.476064	0.832878	0.241316	0.757299	0.827909	0.126489	0.631023	0.815883	0.097704	0.700287	0.807617	0.275881	0.0387301	0.902669	0.296793	0.0466421	0.767757	0.371964	0.0716868	0.824224	0.298301	1.32802	0.564476	0.506404	1.6232	0.546789	0.0153523	1.06089	0.600569
870	4.35	0.197955	1.03263	0.44553	0.118256	1.53504	0.386676	0.11809	0.115714	0.329675	0.140371	0.121178	0.441834	0.0407502	0.0651223	0.386815	0.204557	0.529288	0.362742	0.225297	0.503817	0.489214	0.16633	0.0426059	0.305347	0.198437	0.0413444	0.433535	0.242461	0.440107	0.404274	0.204989	0.361002	0.356104	0.181723	0.475346	0.351572	0.171905	0.730087	0.350052	0.0811726	0.603263	0.420149	0.0574466	0.67808	0.428014	0.274231	0.0599909	0.305666	0.277089	0.0506152	0.432866	0.719511	0.0153775	0.812646	0.176707	1.05667	0.761169	0.140249	1.51085	0.789768	0.148836	0.125193	0.865951	0.170391	0.127332	0.754207	0.0649265	0.0653106	0.809473	0.233622	0.527647	0.820241	0.241488	0.526335	0.695332	0.190697	0.0402474	0.890413	0.221008	0.0435365	0.760306	0.260724	0.460948	0.771294	0.248	0.370421	0.81094	0.217098	0.476131	0.832866	0.241301	0.757364	0.827944	0.12647	0.631151	0.815917	0.0976798	0.70036	0.807606	0.275883	0.0387398	0.902671	0.296801	0.0466365	0.76776	0.371969	0.0716716	0.824229	0.298516	1.32807	0.56442	0.506561	1.62316	0.546306	0.0155188	1.06117	0.600507
871	4.355	0.198678	1.03232	0.44552	0.118419	1.53523	0.386788	0.118105	0.115726	0.329598	0.140403	0.121228	0.441764	0.0407559	0.0651489	0.386778	0.204507	0.52934	0.362712	0.225265	0.503836	0.489102	0.166343	0.042581	0.305315	0.198444	0.0413756	0.433516	0.242381	0.440164	0.404181	0.205001	0.361045	0.356065	0.181644	0.475386	0.35152	0.171923	0.730348	0.35002	0.081159	0.603351	0.420032	0.0574522	0.678189	0.427867	0.274285	0.0599661	0.30562	0.277096	0.0505947	0.432848	0.719505	0.0153831	0.812651	0.176786	1.05673	0.761163	0.140656	1.51093	0.789847	0.14881	0.125252	0.865948	0.170385	0.127347	0.754207	0.0649312	0.0653307	0.809448	0.233565	0.5277	0.820234	0.241438	0.526377	0.695325	0.190709	0.0403031	0.890415	0.22101	0.043542	0.76031	0.26068	0.461026	0.771284	0.247967	0.370483	0.810919	0.217051	0.476203	0.832863	0.241285	0.757407	0.827979	0.126391	0.631204	0.815897	0.0976478	0.700451	0.807599	0.275882	0.0387327	0.902675	0.296813	0.0466301	0.767766	0.371962	0.0712963	0.82406	0.298764	1.32814	0.56433	0.506952	1.62302	0.545878	0.0157174	1.06135	0.600459
872	4.36	0.198889	1.03235	0.445564	0.118613	1.53544	0.386896	0.118146	0.115906	0.32958	0.140409	0.12125	0.441694	0.04079	0.0651367	0.386751	0.204443	0.529401	0.362661	0.225181	0.50393	0.488966	0.166331	0.0425332	0.305306	0.198446	0.0413972	0.433486	0.242342	0.44022	0.404083	0.204997	0.361083	0.356035	0.181605	0.475433	0.351437	0.172052	0.730448	0.349951	0.0811409	0.603469	0.419887	0.0573919	0.678404	0.42775	0.274326	0.0599115	0.305529	0.277126	0.0505879	0.432811	0.719507	0.0154147	0.812636	0.17687	1.05678	0.761165	0.1411	1.511	0.789942	0.148797	0.125265	0.865945	0.170388	0.127373	0.754212	0.0649131	0.0653359	0.80946	0.233497	0.527744	0.82023	0.241394	0.526417	0.695315	0.190708	0.0402967	0.890411	0.220935	0.0431716	0.760325	0.260628	0.461123	0.771283	0.247933	0.370543	0.810923	0.216958	0.476218	0.832792	0.241273	0.757437	0.828017	0.126375	0.631303	0.815906	0.0976286	0.700544	0.807551	0.275875	0.0387237	0.902674	0.296813	0.0466425	0.767759	0.371838	0.071173	0.824109	0.298983	1.32817	0.564293	0.507477	1.62281	0.545437	0.0159015	1.06156	0.600394
873	4.365	0.199099	1.03235	0.445616	0.118816	1.5356	0.38699	0.11816	0.115907	0.329506	0.140404	0.121288	0.441498	0.0407916	0.0651791	0.38672	0.204371	0.529437	0.362622	0.225221	0.503932	0.488861	0.166349	0.0425396	0.305287	0.198464	0.0414164	0.433483	0.24227	0.44027	0.403999	0.204989	0.361107	0.355985	0.181564	0.475477	0.351386	0.172123	0.730511	0.349886	0.0811508	0.603567	0.419723	0.0573958	0.6785	0.427621	0.274376	0.0598324	0.305511	0.277141	0.0505333	0.432779	0.719493	0.015389	0.812648	0.176967	1.05682	0.761178	0.141525	1.51104	0.790037	0.148776	0.12527	0.865938	0.170387	0.12738	0.754212	0.0649216	0.0653369	0.809463	0.233456	0.527773	0.82022	0.241352	0.526455	0.695316	0.190704	0.0403006	0.890412	0.221004	0.0435479	0.760327	0.260577	0.461169	0.771277	0.247904	0.370605	0.810898	0.216934	0.47631	0.832856	0.241282	0.757463	0.828036	0.126332	0.631352	0.815834	0.0976311	0.700606	0.807535	0.275881	0.0387205	0.902685	0.296804	0.0466461	0.767766	0.371973	0.0716428	0.824236	0.299203	1.3282	0.564266	0.507657	1.62273	0.545004	0.0160626	1.06174	0.600361
874	4.37	0.199366	1.03237	0.445706	0.119053	1.53574	0.387078	0.118165	0.115913	0.329444	0.140428	0.12132	0.441418	0.0407913	0.0652129	0.386696	0.204329	0.529476	0.36258	0.225225	0.503959	0.488747	0.166275	0.0424189	0.305254	0.198468	0.0414312	0.433486	0.242222	0.440505	0.404	0.204972	0.361128	0.355929	0.181551	0.475491	0.351333	0.172226	0.730565	0.349824	0.0811018	0.603736	0.419588	0.0573868	0.678635	0.427475	0.274414	0.0597365	0.305498	0.277146	0.0505018	0.432755	0.719499	0.0153842	0.812661	0.177045	1.05683	0.761198	0.141932	1.5111	0.790137	0.148766	0.125297	0.865932	0.170374	0.127396	0.754229	0.0649162	0.0653534	0.809442	0.233404	0.527796	0.820223	0.241306	0.526448	0.695324	0.190709	0.0402863	0.890415	0.221001	0.0435477	0.760312	0.260526	0.461187	0.771275	0.247832	0.370642	0.810914	0.216842	0.4763	0.832786	0.241308	0.757474	0.828058	0.126322	0.631393	0.815818	0.0976353	0.700672	0.807527	0.275871	0.0387189	0.902696	0.296803	0.0466323	0.767772	0.371976	0.0716255	0.824249	0.299408	1.32821	0.564255	0.508176	1.62249	0.544649	0.0162615	1.06189	0.600282
875	4.375	0.199124	1.03263	0.445775	0.119302	1.53588	0.387191	0.118178	0.1159	0.329389	0.140445	0.121332	0.441352	0.040806	0.0652598	0.386701	0.204295	0.529502	0.362539	0.225274	0.504018	0.488681	0.166327	0.0424493	0.305227	0.198476	0.0414338	0.433492	0.242167	0.440524	0.403948	0.204933	0.361138	0.355861	0.181521	0.475505	0.351285	0.172338	0.730618	0.34974	0.0810985	0.603803	0.419459	0.0574124	0.678709	0.427343	0.274515	0.0597418	0.305515	0.277154	0.05045	0.432735	0.719503	0.0153857	0.812654	0.177134	1.05684	0.761211	0.14232	1.51109	0.790238	0.148775	0.1253	0.865928	0.170379	0.12739	0.754228	0.0649298	0.0653627	0.809452	0.233348	0.527785	0.820208	0.241258	0.526428	0.69533	0.190699	0.0403123	0.890407	0.221023	0.043569	0.760299	0.260473	0.46119	0.771277	0.247781	0.37067	0.810936	0.216814	0.476329	0.832784	0.24135	0.757465	0.82805	0.126315	0.631433	0.815803	0.0976488	0.700706	0.807515	0.275873	0.0387053	0.902697	0.296805	0.0466395	0.767776	0.371981	0.0715967	0.824257	0.299661	1.32821	0.564323	0.508484	1.62221	0.544203	0.0164327	1.06206	0.600195
